<?xml version="1.0" encoding="utf-8"?>
<!-- Generator: Adobe Illustrator 23.0.3, SVG Export Plug-In . SVG Version: 6.00 Build 0)  -->
<svg version="1.1" id="图层_1" xmlns="http://www.w3.org/2000/svg" xmlns:xlink="http://www.w3.org/1999/xlink" x="0px" y="0px"
	 viewBox="0 0 150 100" style="enable-background:new 0 0 150 100;" xml:space="preserve">
<style type="text/css">
	.st0{fill:#003DDF;}
	.st1{opacity:0.6;clip-path:url(#SVGID_2_);}
	.st2{opacity:0;fill:#1F8AFF;}
	.st3{opacity:7.692308e-02;fill:#2B90FF;}
	.st4{opacity:0.1538;fill:#3896FF;}
	.st5{opacity:0.2308;fill:#449CFF;}
	.st6{opacity:0.3077;fill:#50A1FF;}
	.st7{opacity:0.3846;fill:#5DA7FF;}
	.st8{opacity:0.4615;fill:#69ADFF;}
	.st9{opacity:0.5385;fill:#75B3FF;}
	.st10{opacity:0.6154;fill:#81B9FF;}
	.st11{opacity:0.6923;fill:#8EBFFF;}
	.st12{opacity:0.7692;fill:#9AC4FF;}
	.st13{opacity:0.8462;fill:#A6CAFF;}
	.st14{opacity:0.9231;fill:#B3D0FF;}
	.st15{fill:#BFD6FF;}
	.st16{fill:#FFFFFF;}
	.st17{opacity:0.7;}
	.st18{fill:url(#SVGID_3_);}
</style>
<path class="st0" d="M140,100H10c-5.5,0-10-4.5-10-10V10C0,4.5,4.5,0,10,0h130c5.5,0,10,4.5,10,10v80C150,95.5,145.5,100,140,100z"
	/>
<g>
	<defs>
		<path id="SVGID_1_" d="M140,100H10c-5.5,0-10-4.5-10-10V10C0,4.5,4.5,0,10,0h130c5.5,0,10,4.5,10,10v80
			C150,95.5,145.5,100,140,100z"/>
	</defs>
	<clipPath id="SVGID_2_">
		<use xlink:href="#SVGID_1_"  style="overflow:visible;"/>
	</clipPath>
	<g class="st1">
		
			<rect x="-8.4" y="-6" transform="matrix(0.9962 -8.710801e-02 8.710801e-02 0.9962 -4.0882 7.2834)" class="st2" width="179.5" height="113"/>
		
			<rect x="-3.8" y="-6.4" transform="matrix(0.9913 -0.1318 0.1318 0.9913 -5.7749 11.6019)" class="st3" width="177.2" height="111.6"/>
		
			<rect x="6.5" y="-8" transform="matrix(0.9841 -0.1773 0.1773 0.9841 -6.8734 17.4371)" class="st4" width="175.2" height="110.3"/>
		
			<rect x="21.7" y="-9.5" transform="matrix(0.9747 -0.2234 0.2234 0.9747 -7.34 25.3851)" class="st5" width="173.6" height="109.3"/>
		
			<rect x="40.8" y="-9.6" transform="matrix(0.9629 -0.2697 0.2697 0.9629 -7.3524 35.91)" class="st6" width="172.4" height="108.5"/>
		<rect x="62.7" y="-6.7" transform="matrix(0.9488 -0.316 0.316 0.9488 -7.3365 49.358)" class="st7" width="171.6" height="108"/>
		
			<rect x="86.5" y="0.4" transform="matrix(0.9322 -0.3618 0.3618 0.9322 -7.9816 65.9466)" class="st8" width="171.2" height="107.8"/>
		
			<rect x="104.9" y="9" transform="matrix(0.9135 -0.4069 0.4069 0.9135 -9.0871 82.9685)" class="st9" width="171.2" height="107.8"/>
		
			<rect x="122.9" y="19.2" transform="matrix(0.8926 -0.4509 0.4509 0.8926 -10.6155 101.9513)" class="st10" width="171.6" height="108"/>
		
			<rect x="139.3" y="30.1" transform="matrix(0.8697 -0.4935 0.4935 0.8697 -12.2473 122.2913)" class="st11" width="172.4" height="108.5"/>
		
			<rect x="153.4" y="40.3" transform="matrix(0.8451 -0.5345 0.5345 0.8451 -13.5651 143.1218)" class="st12" width="173.6" height="109.3"/>
		
			<rect x="164.3" y="48.8" transform="matrix(0.8191 -0.5737 0.5737 0.8191 -14.0864 163.3128)" class="st13" width="175.2" height="110.3"/>
		
			<rect x="170.9" y="54.5" transform="matrix(0.7918 -0.6108 0.6108 0.7918 -13.2962 181.4813)" class="st14" width="177.2" height="111.6"/>
		
			<rect x="172.5" y="56.1" transform="matrix(0.7635 -0.6458 0.6458 0.7635 -10.677 196.0082)" class="st15" width="179.5" height="113"/>
	</g>
</g>
<g>
	<path class="st16" d="M33.3,31.9c-0.2,0.8-0.5,1.6-0.7,2.3h7.2v11.7h-1.4v-1H27v1h-1.3V34.1h5.6c0.2-0.7,0.4-1.5,0.5-2.3h-6.9v-1.3
		h15.8v1.3H33.3z M27,43.7h2.6v-8.3H27V43.7z M34.6,35.4h-3.8v2h3.8V35.4z M34.6,38.5h-3.8v2h3.8V38.5z M30.8,43.7h3.8v-2.1h-3.8
		V43.7z M38.5,35.4h-2.7v8.3h2.7V35.4z"/>
	<path class="st16" d="M59.3,41.6c0.1,0.3,0.2,0.8,0.4,1.1c-3,2.1-3.5,2.4-3.8,2.7c-0.1-0.3-0.4-0.9-0.7-1.2
		c0.3-0.2,0.9-0.7,0.9-1.5v-6.4h-2.5V35h3.7v7.8L59.3,41.6z M57.4,33.2c-0.5-0.7-1.7-1.9-2.6-2.7l0.9-0.8c0.9,0.7,2.1,1.8,2.6,2.5
		L57.4,33.2z M66.1,34.4c0.3,5.5,1,9.6,2.1,9.6c0.3,0,0.5-1,0.6-2.7c0.3,0.3,0.8,0.6,1.1,0.7c-0.4,3-1,3.8-1.7,3.8
		c-2.2-0.1-3.1-4.6-3.4-11.4h-6v-1.3h5.9c-0.1-1.2-0.1-2.4-0.1-3.7H66c0,1.3,0,2.5,0.1,3.7h3.7v1.3H66.1z M62.5,42.4
		c0.7-0.2,1.4-0.4,2.1-0.6l0.2,1.2c-1.9,0.6-3.9,1.1-5.3,1.6l-0.4-1.3c0.6-0.1,1.4-0.3,2.2-0.6v-4.5h-1.9V37h4.8v1.2h-1.7V42.4z
		 M68.5,32.8c-0.4-0.7-1.2-1.8-1.9-2.6l0.9-0.6c0.8,0.8,1.6,1.8,2,2.5L68.5,32.8z"/>
	<path class="st16" d="M88.6,38.7c0,0.4,0,0.9,0.1,1.2c-5,0.9-5.6,1.1-6,1.3c-0.1-0.3-0.3-0.9-0.5-1.3c0.4-0.1,0.8-0.5,1.4-1.2
		c0.4-0.4,1.1-1.2,1.9-2.4c-2.3,0.3-2.7,0.3-3,0.5c-0.1-0.3-0.3-1-0.5-1.4c0.3-0.1,0.6-0.5,1-1c0.4-0.6,1.7-2.8,2.4-4.9l1.3,0.6
		c-0.8,1.8-1.8,3.7-2.9,5.2l2.4-0.2c0.4-0.6,0.8-1.3,1.1-1.9l1.2,0.7c-1.2,1.9-2.6,3.9-4.1,5.4L88.6,38.7z M82.1,43.5
		c1.6-0.3,4.1-0.8,6.5-1.3l0.1,1.2c-2.3,0.5-4.6,1-6.4,1.4L82.1,43.5z M94.2,33.1v2.8H98v1.3h-8.8v-1.3h3.7v-2.8h-4.1v-1.3h4.1v-2.4
		h1.4v2.4h4.1v1.3H94.2z M89.7,39h7.9v6.8h-1.3v-0.7H91v0.8h-1.3V39z M91,40.2v3.7h5.3v-3.7H91z"/>
	<path class="st16" d="M121,40.1c1.7,1.7,4.2,3.2,6.5,3.9c-0.3,0.3-0.7,0.8-0.9,1.1c-2.3-0.9-4.9-2.7-6.7-4.6v5.3h-1.4v-5.2
		c-1.7,2-4.4,3.7-6.7,4.6c-0.2-0.3-0.6-0.8-0.9-1.1c2.3-0.8,4.9-2.3,6.5-4h-6v-1.2h7.1v-1.5h-5.4v-7.1h12.3v7.1h-5.5v1.5h7.1v1.2
		H121z M114.4,33.3h4.1v-1.8h-4.1V33.3z M118.5,36.2v-1.9h-4.1v1.9H118.5z M124,31.4h-4.1v1.8h4.1V31.4z M124,34.4h-4.1v1.9h4.1
		V34.4z"/>
</g>
<g class="st17">
	<path class="st16" d="M39.4,72.3h1.2v5.9h-1.2V72.3z"/>
	<path class="st16" d="M45.3,72.3h1.2l1.7,3.2l0.6,1.3h0c-0.1-0.6-0.2-1.4-0.2-2.1v-2.4h1.1v5.9h-1.2l-1.7-3.2l-0.6-1.3h0
		c0.1,0.6,0.1,1.4,0.1,2.1v2.4h-1.1V72.3z"/>
	<path class="st16" d="M55.7,73.3H54v-1h4.5v1h-1.7v4.9h-1.2V73.3z"/>
	<path class="st16" d="M62.7,72.3h3.6v1h-2.4v1.4h2.1v1h-2.1v1.6h2.5v1h-3.7V72.3z"/>
	<path class="st16" d="M74,78.2L72.8,76H72v2.2h-1.2v-5.9h2.1c1.2,0,2.2,0.4,2.2,1.8c0,0.9-0.4,1.4-1.1,1.7l1.4,2.4H74z M72,75.1
		h0.8c0.8,0,1.2-0.3,1.2-1c0-0.6-0.4-0.9-1.2-0.9H72V75.1z"/>
	<path class="st16" d="M78.6,72.3h1.2l0.8,2.9c0.2,0.7,0.3,1.2,0.5,1.9h0c0.2-0.7,0.3-1.3,0.5-1.9l0.8-2.9h1.2l-1.8,5.9h-1.4
		L78.6,72.3z"/>
	<path class="st16" d="M87.5,72.3h1.2v5.9h-1.2V72.3z"/>
	<path class="st16" d="M93.4,72.3H97v1h-2.4v1.4h2.1v1h-2.1v1.6h2.5v1h-3.7V72.3z"/>
	<path class="st16" d="M100.9,72.3h1.2l0.5,2.9c0.1,0.6,0.2,1.3,0.3,1.9h0c0.1-0.6,0.2-1.3,0.4-1.9l0.7-2.9h1l0.7,2.9
		c0.1,0.6,0.2,1.2,0.4,1.9h0c0.1-0.6,0.2-1.3,0.3-1.9l0.5-2.9h1.1l-1.1,5.9h-1.5l-0.7-2.9c-0.1-0.5-0.2-0.9-0.3-1.4h0
		c-0.1,0.4-0.2,0.9-0.3,1.4l-0.6,2.9H102L100.9,72.3z"/>
</g>
<linearGradient id="SVGID_3_" gradientUnits="userSpaceOnUse" x1="35" y1="56.4367" x2="115" y2="56.4367">
	<stop  offset="6.926126e-08" style="stop-color:#FFFFFF;stop-opacity:0"/>
	<stop  offset="1" style="stop-color:#FFFFFF"/>
</linearGradient>
<rect x="35" y="55.9" class="st18" width="80" height="1"/>
</svg>
