<?xml version="1.0" encoding="utf-8"?>
<!-- Generator: Adobe Illustrator 23.0.3, SVG Export Plug-In . SVG Version: 6.00 Build 0)  -->
<svg version="1.1" id="图层_1" xmlns="http://www.w3.org/2000/svg" xmlns:xlink="http://www.w3.org/1999/xlink" x="0px" y="0px"
	 viewBox="0 0 150 100" style="enable-background:new 0 0 150 100;" xml:space="preserve">
<style type="text/css">
	.st0{fill:#003DDF;}
	.st1{opacity:0.6;clip-path:url(#SVGID_2_);}
	.st2{opacity:0;fill:#1F8AFF;}
	.st3{opacity:7.692308e-02;fill:#2B90FF;}
	.st4{opacity:0.1538;fill:#3896FF;}
	.st5{opacity:0.2308;fill:#449CFF;}
	.st6{opacity:0.3077;fill:#50A1FF;}
	.st7{opacity:0.3846;fill:#5DA7FF;}
	.st8{opacity:0.4615;fill:#69ADFF;}
	.st9{opacity:0.5385;fill:#75B3FF;}
	.st10{opacity:0.6154;fill:#81B9FF;}
	.st11{opacity:0.6923;fill:#8EBFFF;}
	.st12{opacity:0.7692;fill:#9AC4FF;}
	.st13{opacity:0.8462;fill:#A6CAFF;}
	.st14{opacity:0.9231;fill:#B3D0FF;}
	.st15{fill:#BFD6FF;}
	.st16{fill:#FFFFFF;}
	.st17{opacity:0.7;}
	.st18{fill:url(#SVGID_3_);}
</style>
<path class="st0" d="M140,100H10c-5.5,0-10-4.5-10-10V10C0,4.5,4.5,0,10,0h130c5.5,0,10,4.5,10,10v80C150,95.5,145.5,100,140,100z"
	/>
<g>
	<defs>
		<path id="SVGID_1_" d="M140,100H10c-5.5,0-10-4.5-10-10V10C0,4.5,4.5,0,10,0h130c5.5,0,10,4.5,10,10v80
			C150,95.5,145.5,100,140,100z"/>
	</defs>
	<clipPath id="SVGID_2_">
		<use xlink:href="#SVGID_1_"  style="overflow:visible;"/>
	</clipPath>
	<g class="st1">
		
			<rect x="-8.4" y="-6" transform="matrix(0.9962 -8.710801e-02 8.710801e-02 0.9962 -4.0882 7.2834)" class="st2" width="179.5" height="113"/>
		
			<rect x="-3.8" y="-6.4" transform="matrix(0.9913 -0.1318 0.1318 0.9913 -5.7749 11.6019)" class="st3" width="177.2" height="111.6"/>
		
			<rect x="6.5" y="-8" transform="matrix(0.9841 -0.1773 0.1773 0.9841 -6.8734 17.4371)" class="st4" width="175.2" height="110.3"/>
		
			<rect x="21.7" y="-9.5" transform="matrix(0.9747 -0.2234 0.2234 0.9747 -7.34 25.3851)" class="st5" width="173.6" height="109.3"/>
		
			<rect x="40.8" y="-9.6" transform="matrix(0.9629 -0.2697 0.2697 0.9629 -7.3524 35.91)" class="st6" width="172.4" height="108.5"/>
		<rect x="62.7" y="-6.7" transform="matrix(0.9488 -0.316 0.316 0.9488 -7.3365 49.358)" class="st7" width="171.6" height="108"/>
		
			<rect x="86.5" y="0.4" transform="matrix(0.9322 -0.3618 0.3618 0.9322 -7.9816 65.9466)" class="st8" width="171.2" height="107.8"/>
		
			<rect x="104.9" y="9" transform="matrix(0.9135 -0.4069 0.4069 0.9135 -9.0871 82.9685)" class="st9" width="171.2" height="107.8"/>
		
			<rect x="122.9" y="19.2" transform="matrix(0.8926 -0.4509 0.4509 0.8926 -10.6155 101.9513)" class="st10" width="171.6" height="108"/>
		
			<rect x="139.3" y="30.1" transform="matrix(0.8697 -0.4935 0.4935 0.8697 -12.2473 122.2913)" class="st11" width="172.4" height="108.5"/>
		
			<rect x="153.4" y="40.3" transform="matrix(0.8451 -0.5345 0.5345 0.8451 -13.5651 143.1218)" class="st12" width="173.6" height="109.3"/>
		
			<rect x="164.3" y="48.8" transform="matrix(0.8191 -0.5737 0.5737 0.8191 -14.0864 163.3128)" class="st13" width="175.2" height="110.3"/>
		
			<rect x="170.9" y="54.5" transform="matrix(0.7918 -0.6108 0.6108 0.7918 -13.2962 181.4813)" class="st14" width="177.2" height="111.6"/>
		
			<rect x="172.5" y="56.1" transform="matrix(0.7635 -0.6458 0.6458 0.7635 -10.677 196.0082)" class="st15" width="179.5" height="113"/>
	</g>
</g>
<g>
	<path class="st16" d="M29.3,29.9c-0.4,1.2-0.9,2.4-1.4,3.6v12.4h-1.3v-10c-0.5,0.9-1.1,1.7-1.7,2.4c-0.1-0.3-0.5-1-0.7-1.4
		c1.5-1.8,3-4.5,3.9-7.3L29.3,29.9z M29.3,34.4h1.2V43h-1.2V34.4z M40.4,31.7c-0.7,1.6-1.8,2.9-3.2,3.9c1.1,0.6,2.4,1.1,4,1.4
		c-0.3,0.3-0.6,0.8-0.7,1.1c-1.7-0.4-3.1-1-4.3-1.7c-1.5,0.9-3.3,1.5-5.1,1.9c-0.1-0.3-0.4-0.8-0.6-1c1.6-0.3,3.3-0.8,4.7-1.6
		c-0.9-0.7-1.6-1.4-2.1-2.2c-0.5,0.7-1,1.3-1.6,1.8c-0.2-0.2-0.7-0.6-1-0.8c1.4-1.2,2.8-3.1,3.5-5l1.2,0.3c-0.2,0.6-0.5,1.1-0.8,1.7
		h5.1l0.2-0.1L40.4,31.7z M40.8,41.7c-1.8,2.1-5.1,3.4-8.9,4.1c-0.1-0.3-0.4-0.8-0.7-1.1c3.6-0.5,6.9-1.7,8.5-3.5L40.8,41.7z
		 M37.3,38c-1.1,1.1-2.9,2.1-4.6,2.6c-0.2-0.3-0.5-0.6-0.8-0.8c1.6-0.5,3.4-1.3,4.4-2.3L37.3,38z M39,39.7c-1.4,1.5-3.7,2.6-6.2,3.2
		c-0.2-0.3-0.4-0.6-0.7-0.9c2.3-0.5,4.6-1.5,5.8-2.8L39,39.7z M33.7,32.5c0.5,0.9,1.4,1.8,2.5,2.5c1-0.7,1.9-1.5,2.6-2.5H33.7z"/>
	<path class="st16" d="M68.5,34c-0.5,3-1.2,5.3-2.4,7.3c1,1.5,2.3,2.7,3.9,3.4c-0.3,0.3-0.7,0.8-0.9,1.1c-1.5-0.8-2.8-1.9-3.8-3.3
		c-1.1,1.4-2.5,2.6-4.4,3.5c-0.1-0.3-0.5-0.9-0.8-1.2c1.9-0.9,3.3-2,4.4-3.5C63.6,39.7,63,38,62.5,36c-0.4,0.8-0.8,1.5-1.3,2.2
		c-0.2-0.3-0.7-0.8-1-1l0.1-0.1h-4.7v5.7l4.7-1.7c0,0.4,0.1,1,0.2,1.3c-5.2,2-5.9,2.3-6.3,2.7c-0.1-0.4-0.3-1-0.5-1.4
		c0.3-0.1,0.6-0.4,0.6-1v-6.8H59V32h-5v-1.3h6.3v6.4c1.4-1.9,2.4-4.7,3-7.7l1.3,0.3c-0.2,1.1-0.5,2.1-0.8,3.1h5.8V34H68.5z
		 M63.3,34.2c0.4,2.1,1,4.1,1.9,5.8c0.9-1.6,1.4-3.6,1.8-6h-3.7L63.3,34.2z"/>
	<path class="st16" d="M87.2,29.8c-0.4,1.2-0.9,2.4-1.5,3.5v12.5h-1.2V35.6c-0.5,0.9-1.1,1.6-1.7,2.3c-0.1-0.3-0.5-0.9-0.7-1.2
		c1.6-1.7,3.1-4.4,4-7.1L87.2,29.8z M98.4,32.4v1.1H87v-1.1H98.4z M88,40.1h9.1v5.7H96v-0.6h-6.8v0.7H88V40.1z M97,36.1h-8.7V35H97
		V36.1z M88.3,37.5H97v1.1h-8.7V37.5z M89.2,41.2V44H96v-2.8H89.2z M92.4,32.3c-0.2-0.6-0.8-1.7-1.2-2.4l1.1-0.5
		c0.5,0.8,1.1,1.7,1.3,2.3L92.4,32.3z"/>
	<path class="st16" d="M111.1,44.4c0.7-1,1.4-2.5,1.8-3.6l1.2,0.5c-0.5,1.1-1.1,2.7-1.8,3.7L111.1,44.4z M118.7,39.6h-5v-8.5h4.2
		c0.3-0.6,0.5-1.3,0.7-1.9l1.5,0.3c-0.3,0.6-0.6,1.1-0.8,1.6h5.4v8.5h-5.8c0.9,0.8,1.9,1.9,2.4,2.7l-1.1,0.7c-0.5-0.8-1.5-2-2.4-2.8
		L118.7,39.6z M121.6,44.3c1,0,1.1-0.3,1.2-2.1c0.3,0.2,0.9,0.4,1.2,0.5c-0.2,2.3-0.6,2.8-2.4,2.8h-4.1c-2.1,0-2.6-0.4-2.6-1.8v-2.9
		h1.3v2.9c0,0.5,0.2,0.6,1.4,0.6H121.6z M115,33.6h8.3v-1.4H115V33.6z M115,36.1h8.3v-1.4H115V36.1z M115,38.5h8.3v-1.4H115V38.5z
		 M125.1,40.5c0.8,1.1,1.7,2.6,2.1,3.6l-1.2,0.6c-0.3-1-1.2-2.5-2-3.6L125.1,40.5z"/>
</g>
<g class="st17">
	<path class="st16" d="M30.1,72.3h1.2v5.9h-1.2V72.3z"/>
	<path class="st16" d="M36,72.3h1.2l1.7,3.2l0.6,1.3h0c-0.1-0.6-0.2-1.4-0.2-2.1v-2.4h1.1v5.9h-1.2l-1.7-3.2L37,73.8h0
		c0.1,0.6,0.1,1.4,0.1,2.1v2.4H36V72.3z"/>
	<path class="st16" d="M45.2,72.3h3.6v1h-2.5v1.5h2.1v1h-2.1v2.4h-1.2V72.3z"/>
	<path class="st16" d="M52.7,75.3c0-1.9,1.1-3,2.6-3c1.6,0,2.6,1.1,2.6,3s-1.1,3.1-2.6,3.1C53.7,78.4,52.7,77.2,52.7,75.3z
		 M56.8,75.3c0-1.3-0.6-2-1.4-2c-0.9,0-1.4,0.8-1.4,2c0,1.3,0.6,2.1,1.4,2.1C56.2,77.3,56.8,76.5,56.8,75.3z"/>
	<path class="st16" d="M65.5,78.2L64.3,76h-0.8v2.2h-1.2v-5.9h2.1c1.2,0,2.2,0.4,2.2,1.8c0,0.9-0.4,1.4-1.1,1.7l1.4,2.4H65.5z
		 M63.5,75.1h0.8c0.8,0,1.2-0.3,1.2-1c0-0.6-0.4-0.9-1.2-0.9h-0.8V75.1z"/>
	<path class="st16" d="M71,72.3h1.3l1,2.8c0.1,0.4,0.2,0.8,0.4,1.1h0c0.1-0.4,0.2-0.8,0.4-1.1l1-2.8h1.3v5.9h-1.1v-2.5
		c0-0.6,0.1-1.4,0.1-1.9h0l-0.5,1.4L74,77.7h-0.7l-0.9-2.5l-0.5-1.4h0c0.1,0.6,0.2,1.4,0.2,1.9v2.5H71V72.3z"/>
	<path class="st16" d="M83.8,76.7h-1.9l-0.4,1.5h-1.2l1.9-5.9h1.4l1.9,5.9h-1.2L83.8,76.7z M83.5,75.8l-0.2-0.6
		c-0.2-0.6-0.3-1.3-0.5-1.9h0c-0.2,0.6-0.3,1.3-0.5,1.9l-0.2,0.6H83.5z"/>
	<path class="st16" d="M89.9,73.3h-1.7v-1h4.5v1h-1.7v4.9h-1.2V73.3z"/>
	<path class="st16" d="M96.9,72.3h1.2v5.9h-1.2V72.3z"/>
	<path class="st16" d="M102.5,75.3c0-1.9,1.1-3,2.6-3c1.6,0,2.6,1.1,2.6,3s-1.1,3.1-2.6,3.1C103.5,78.4,102.5,77.2,102.5,75.3z
		 M106.5,75.3c0-1.3-0.6-2-1.4-2c-0.9,0-1.4,0.8-1.4,2c0,1.3,0.6,2.1,1.4,2.1C106,77.3,106.5,76.5,106.5,75.3z"/>
	<path class="st16" d="M112.1,72.3h1.2l1.7,3.2l0.6,1.3h0c-0.1-0.6-0.2-1.4-0.2-2.1v-2.4h1.1v5.9h-1.2l-1.7-3.2l-0.6-1.3h0
		c0.1,0.6,0.1,1.4,0.1,2.1v2.4h-1.1V72.3z"/>
</g>
<linearGradient id="SVGID_3_" gradientUnits="userSpaceOnUse" x1="35" y1="56.4367" x2="115" y2="56.4367">
	<stop  offset="6.926126e-08" style="stop-color:#FFFFFF;stop-opacity:0"/>
	<stop  offset="1" style="stop-color:#FFFFFF"/>
</linearGradient>
<rect x="35" y="55.9" class="st18" width="80" height="1"/>
</svg>
