<?xml version="1.0" encoding="utf-8"?>
<!-- Generator: Adobe Illustrator 23.0.3, SVG Export Plug-In . SVG Version: 6.00 Build 0)  -->
<svg version="1.1" id="图层_1" xmlns="http://www.w3.org/2000/svg" xmlns:xlink="http://www.w3.org/1999/xlink" x="0px" y="0px"
	 viewBox="0 0 150 100" style="enable-background:new 0 0 150 100;" xml:space="preserve">
<style type="text/css">
	.st0{fill:#003DDF;}
	.st1{opacity:0.6;clip-path:url(#SVGID_2_);}
	.st2{opacity:0;fill:#1F8AFF;}
	.st3{opacity:7.692308e-02;fill:#2B90FF;}
	.st4{opacity:0.1538;fill:#3896FF;}
	.st5{opacity:0.2308;fill:#449CFF;}
	.st6{opacity:0.3077;fill:#50A1FF;}
	.st7{opacity:0.3846;fill:#5DA7FF;}
	.st8{opacity:0.4615;fill:#69ADFF;}
	.st9{opacity:0.5385;fill:#75B3FF;}
	.st10{opacity:0.6154;fill:#81B9FF;}
	.st11{opacity:0.6923;fill:#8EBFFF;}
	.st12{opacity:0.7692;fill:#9AC4FF;}
	.st13{opacity:0.8462;fill:#A6CAFF;}
	.st14{opacity:0.9231;fill:#B3D0FF;}
	.st15{fill:#BFD6FF;}
	.st16{fill:#FFFFFF;}
	.st17{opacity:0.7;}
	.st18{fill:url(#SVGID_3_);}
</style>
<path class="st0" d="M140,100H10c-5.5,0-10-4.5-10-10V10C0,4.5,4.5,0,10,0h130c5.5,0,10,4.5,10,10v80C150,95.5,145.5,100,140,100z"
	/>
<g>
	<defs>
		<path id="SVGID_1_" d="M140,100H10c-5.5,0-10-4.5-10-10V10C0,4.5,4.5,0,10,0h130c5.5,0,10,4.5,10,10v80
			C150,95.5,145.5,100,140,100z"/>
	</defs>
	<clipPath id="SVGID_2_">
		<use xlink:href="#SVGID_1_"  style="overflow:visible;"/>
	</clipPath>
	<g class="st1">
		
			<rect x="-8.4" y="-6" transform="matrix(0.9962 -8.710801e-02 8.710801e-02 0.9962 -4.0882 7.2834)" class="st2" width="179.5" height="113"/>
		
			<rect x="-3.8" y="-6.4" transform="matrix(0.9913 -0.1318 0.1318 0.9913 -5.7749 11.6019)" class="st3" width="177.2" height="111.6"/>
		
			<rect x="6.5" y="-8" transform="matrix(0.9841 -0.1773 0.1773 0.9841 -6.8734 17.4371)" class="st4" width="175.2" height="110.3"/>
		
			<rect x="21.7" y="-9.5" transform="matrix(0.9747 -0.2234 0.2234 0.9747 -7.34 25.3851)" class="st5" width="173.6" height="109.3"/>
		
			<rect x="40.8" y="-9.6" transform="matrix(0.9629 -0.2697 0.2697 0.9629 -7.3524 35.91)" class="st6" width="172.4" height="108.5"/>
		<rect x="62.7" y="-6.7" transform="matrix(0.9488 -0.316 0.316 0.9488 -7.3365 49.358)" class="st7" width="171.6" height="108"/>
		
			<rect x="86.5" y="0.4" transform="matrix(0.9322 -0.3618 0.3618 0.9322 -7.9816 65.9466)" class="st8" width="171.2" height="107.8"/>
		
			<rect x="104.9" y="9" transform="matrix(0.9135 -0.4069 0.4069 0.9135 -9.0871 82.9685)" class="st9" width="171.2" height="107.8"/>
		
			<rect x="122.9" y="19.2" transform="matrix(0.8926 -0.4509 0.4509 0.8926 -10.6155 101.9513)" class="st10" width="171.6" height="108"/>
		
			<rect x="139.3" y="30.1" transform="matrix(0.8697 -0.4935 0.4935 0.8697 -12.2473 122.2913)" class="st11" width="172.4" height="108.5"/>
		
			<rect x="153.4" y="40.3" transform="matrix(0.8451 -0.5345 0.5345 0.8451 -13.5651 143.1218)" class="st12" width="173.6" height="109.3"/>
		
			<rect x="164.3" y="48.8" transform="matrix(0.8191 -0.5737 0.5737 0.8191 -14.0864 163.3128)" class="st13" width="175.2" height="110.3"/>
		
			<rect x="170.9" y="54.5" transform="matrix(0.7918 -0.6108 0.6108 0.7918 -13.2962 181.4813)" class="st14" width="177.2" height="111.6"/>
		
			<rect x="172.5" y="56.1" transform="matrix(0.7635 -0.6458 0.6458 0.7635 -10.677 196.0082)" class="st15" width="179.5" height="113"/>
	</g>
</g>
<g>
	<path class="st16" d="M33.3,31.9c-0.2,0.8-0.5,1.6-0.7,2.3h7.2v11.7h-1.4v-1H27v1h-1.3V34.1h5.6c0.2-0.7,0.4-1.5,0.5-2.3h-6.9v-1.3
		h15.8v1.3H33.3z M27,43.7h2.6v-8.3H27V43.7z M34.6,35.4h-3.8v2h3.8V35.4z M34.6,38.5h-3.8v2h3.8V38.5z M30.8,43.7h3.8v-2.1h-3.8
		V43.7z M38.5,35.4h-2.7v8.3h2.7V35.4z"/>
	<path class="st16" d="M59.3,41.6c0.1,0.3,0.2,0.8,0.4,1.1c-3,2.1-3.5,2.4-3.8,2.7c-0.1-0.3-0.4-0.9-0.7-1.2
		c0.3-0.2,0.9-0.7,0.9-1.5v-6.4h-2.5V35h3.7v7.8L59.3,41.6z M57.4,33.2c-0.5-0.7-1.7-1.9-2.6-2.7l0.9-0.8c0.9,0.7,2.1,1.8,2.6,2.5
		L57.4,33.2z M66.1,34.4c0.3,5.5,1,9.6,2.1,9.6c0.3,0,0.5-1,0.6-2.7c0.3,0.3,0.8,0.6,1.1,0.7c-0.4,3-1,3.8-1.7,3.8
		c-2.2-0.1-3.1-4.6-3.4-11.4h-6v-1.3h5.9c-0.1-1.2-0.1-2.4-0.1-3.7H66c0,1.3,0,2.5,0.1,3.7h3.7v1.3H66.1z M62.5,42.4
		c0.7-0.2,1.4-0.4,2.1-0.6l0.2,1.2c-1.9,0.6-3.9,1.1-5.3,1.6l-0.4-1.3c0.6-0.1,1.4-0.3,2.2-0.6v-4.5h-1.9V37h4.8v1.2h-1.7V42.4z
		 M68.5,32.8c-0.4-0.7-1.2-1.8-1.9-2.6l0.9-0.6c0.8,0.8,1.6,1.8,2,2.5L68.5,32.8z"/>
	<path class="st16" d="M94.7,37.7c-0.6,1.7-1.5,3-2.6,4.1c2.2,0.9,4.3,1.9,5.6,2.8l-1.1,1.2c-1.3-0.9-3.4-2-5.7-3
		c-1.9,1.5-4.3,2.4-7.3,3c-0.1-0.3-0.6-0.9-0.8-1.2c2.7-0.5,5-1.2,6.7-2.4c-1.6-0.6-3.3-1.3-4.8-1.7l0,0c0.6-0.8,1.3-1.7,1.9-2.8
		h-4.1v-1.3h4.9c0.5-1,1.1-2,1.4-2.9l1.4,0.3c-0.4,0.8-0.8,1.7-1.3,2.6h9v1.3H94.7z M84.4,35.1h-1.3v-3.6h6.6
		c-0.3-0.6-0.6-1.2-0.8-1.8l1.4-0.3c0.4,0.7,0.8,1.5,1,2.1h6.4v3.6h-1.4v-2.4H84.4V35.1z M88.4,37.7c-0.5,0.8-1,1.5-1.4,2.2
		c1.2,0.4,2.6,0.9,3.9,1.4c1-1,1.8-2.1,2.4-3.6H88.4z"/>
	<path class="st16" d="M116.9,38.5c-0.7,0.2-1.4,0.4-2.1,0.6v5c0,0.7-0.2,1.1-0.6,1.3c-0.4,0.2-1.1,0.3-2.2,0.3
		c-0.1-0.3-0.2-0.9-0.4-1.2c0.7,0,1.4,0,1.6,0c0.2,0,0.3-0.1,0.3-0.3v-4.7l-2.2,0.7l-0.3-1.3c0.7-0.2,1.5-0.4,2.5-0.6v-3.9h-2.3V33
		h2.3v-3.6h1.3V33h1.9v1.3h-1.9v3.6l2-0.6L116.9,38.5z M120.1,29.6h1.3v16.3h-1.3v-4.7h-3v-1.2h3v-2.5h-2.6v-1.2h2.6v-2.5h-2.7v-1.2
		h2.7V29.6z M127.4,41.2h-3.1v4.7H123V29.5h1.3v3h2.9v1.2h-2.9v2.5h2.8v1.2h-2.8V40h3.1V41.2z"/>
</g>
<g class="st17">
	<path class="st16" d="M28.3,76.7h-1.9l-0.4,1.5h-1.2l1.9-5.9H28l1.9,5.9h-1.2L28.3,76.7z M28,75.8l-0.2-0.6
		c-0.2-0.6-0.3-1.3-0.5-1.9h0c-0.2,0.6-0.3,1.3-0.5,1.9l-0.2,0.6H28z"/>
	<path class="st16" d="M33.8,72.3h1.6c1.8,0,2.9,0.9,2.9,2.9c0,2-1.1,3-2.9,3h-1.7V72.3z M35.4,77.3c1.1,0,1.8-0.6,1.8-2
		c0-1.4-0.7-2-1.8-2H35v4H35.4z"/>
	<path class="st16" d="M42.7,72.3h1.6c1.8,0,2.9,0.9,2.9,2.9c0,2-1.1,3-2.9,3h-1.7V72.3z M44.3,77.3c1.1,0,1.8-0.6,1.8-2
		c0-1.4-0.7-2-1.8-2h-0.4v4H44.3z"/>
	<path class="st16" d="M54.9,78.2L53.7,76h-0.8v2.2h-1.2v-5.9h2.1c1.2,0,2.2,0.4,2.2,1.8c0,0.9-0.4,1.4-1.1,1.7l1.4,2.4H54.9z
		 M52.8,75.1h0.8c0.8,0,1.2-0.3,1.2-1c0-0.6-0.4-0.9-1.2-0.9h-0.8V75.1z"/>
	<path class="st16" d="M60.3,72.3h3.6v1h-2.4v1.4h2.1v1h-2.1v1.6H64v1h-3.7V72.3z"/>
	<path class="st16" d="M68,77.5l0.7-0.8c0.4,0.4,1,0.7,1.5,0.7c0.6,0,0.9-0.3,0.9-0.7c0-0.4-0.4-0.6-0.9-0.8l-0.8-0.3
		c-0.6-0.2-1.2-0.7-1.2-1.6c0-1,0.8-1.7,2-1.7c0.7,0,1.4,0.3,1.9,0.8l-0.6,0.7c-0.4-0.3-0.8-0.5-1.3-0.5c-0.5,0-0.9,0.2-0.9,0.6
		c0,0.4,0.4,0.6,0.9,0.8l0.8,0.3c0.7,0.3,1.2,0.8,1.2,1.6c0,1-0.8,1.8-2.2,1.8C69.4,78.4,68.6,78,68,77.5z"/>
	<path class="st16" d="M76.1,77.5l0.7-0.8c0.4,0.4,1,0.7,1.5,0.7c0.6,0,0.9-0.3,0.9-0.7c0-0.4-0.4-0.6-0.9-0.8l-0.8-0.3
		c-0.6-0.2-1.2-0.7-1.2-1.6c0-1,0.8-1.7,2-1.7c0.7,0,1.4,0.3,1.9,0.8l-0.6,0.7c-0.4-0.3-0.8-0.5-1.3-0.5c-0.5,0-0.9,0.2-0.9,0.6
		c0,0.4,0.4,0.6,0.9,0.8l0.8,0.3c0.7,0.3,1.2,0.8,1.2,1.6c0,1-0.8,1.8-2.2,1.8C77.4,78.4,76.6,78,76.1,77.5z"/>
	<path class="st16" d="M89.4,78.4c-0.5-0.1-1-0.3-1.5-0.6c-0.5,0.4-1.1,0.6-1.8,0.6c-1.2,0-1.9-0.8-1.9-1.7c0-0.8,0.5-1.3,1.1-1.7
		c-0.2-0.4-0.4-0.9-0.4-1.3c0-0.8,0.6-1.5,1.6-1.5c0.8,0,1.4,0.5,1.4,1.3c0,0.8-0.6,1.3-1.3,1.7c0.4,0.4,0.8,0.9,1.3,1.2
		c0.3-0.4,0.6-0.9,0.7-1.5h1.1c-0.2,0.7-0.5,1.4-1,2c0.4,0.2,0.7,0.4,1,0.4L89.4,78.4z M86.2,77.4c0.3,0,0.6-0.1,0.9-0.3
		c-0.5-0.4-1-0.9-1.3-1.4c-0.3,0.2-0.5,0.5-0.5,0.8C85.3,77.1,85.7,77.4,86.2,77.4z M86.1,74.5c0.5-0.3,0.8-0.6,0.8-1
		c0-0.3-0.1-0.5-0.4-0.5c-0.3,0-0.6,0.3-0.6,0.7C85.9,74,86,74.2,86.1,74.5z"/>
	<path class="st16" d="M94.9,73.3h-1.7v-1h4.5v1h-1.7v4.9h-1.2V73.3z"/>
	<path class="st16" d="M102,72.3h1.2v5.9H102V72.3z"/>
	<path class="st16" d="M107.8,72.3h1.3l1,2.8c0.1,0.4,0.2,0.8,0.4,1.1h0c0.1-0.4,0.2-0.8,0.4-1.1l1-2.8h1.3v5.9h-1.1v-2.5
		c0-0.6,0.1-1.4,0.1-1.9h0l-0.5,1.4l-0.9,2.5h-0.7l-0.9-2.5l-0.5-1.4h0c0.1,0.6,0.2,1.4,0.2,1.9v2.5h-1.1V72.3z"/>
	<path class="st16" d="M117.8,72.3h3.6v1H119v1.4h2.1v1H119v1.6h2.5v1h-3.7V72.3z"/>
</g>
<linearGradient id="SVGID_3_" gradientUnits="userSpaceOnUse" x1="35" y1="56.4367" x2="115" y2="56.4367">
	<stop  offset="6.926126e-08" style="stop-color:#FFFFFF;stop-opacity:0"/>
	<stop  offset="1" style="stop-color:#FFFFFF"/>
</linearGradient>
<rect x="35" y="55.9" class="st18" width="80" height="1"/>
</svg>
